<svg xmlns="http://www.w3.org/2000/svg" width="128" height="128" viewBox="0 0 128 128">
  <g fill="none" fill-rule="evenodd">
    <rect width="128" height="128" fill="#FFF"/>
    <path fill="#FFF" d="M63.3904762,63.3904762 L89.4864762,89.4864762 C82.8015238,96.1729524 73.5702857,100.313143 63.3904762,100.313143 C43.0308571,100.313143 26.4670476,83.7500952 26.4670476,63.3904762 C26.4670476,43.0308571 43.0308571,26.4678095 63.3904762,26.4678095 C73.5702857,26.4678095 82.8015238,30.608 89.4864762,37.2944762 L95.7158095,31.0659048 C87.4422857,22.7931429 76.0137143,17.6761905 63.3904762,17.6761905 C38.1432381,17.6761905 17.6761905,38.1432381 17.6761905,63.3904762 C17.6761905,88.6377143 38.1432381,109.104762 63.3904762,109.104762 C88.6377143,109.104762 109.104762,88.6377143 109.104762,63.3904762 L63.3904762,63.3904762 Z"/>
    <rect width="126.781" height="126.781" fill="#363D4D" rx="63.39"/>
    <path fill="#FFF" d="M101.424762,55.783619 L101.424762,63.3904762 C101.424762,84.3964318 84.3964318,101.424762 63.3904762,101.424762 L63.3904762,101.424762 L63.3904762,86.2110476 C73.3257923,86.2110476 81.7739678,79.8597022 84.9072323,70.9973333 L84.9072323,70.9973333 L63.3904762,70.9973333 L63.3904762,55.783619 L101.424762,55.783619 Z M63.3904762,25.3561905 L63.3904762,40.5699048 C50.7870549,40.5699048 40.5699048,50.7870549 40.5699048,63.3904762 L40.5699048,63.3904762 L25.3561905,63.3904762 C25.3561905,42.3845205 42.3845205,25.3561905 63.3904762,25.3561905 L63.3904762,25.3561905 Z"/>
  </g>
</svg>
